<mxfile host="app.diagrams.net" agent="Mozilla/5.0 (Windows NT 10.0; Win64; x64) AppleWebKit/537.36 (KHTML, like Gecko) Chrome/131.0.0.0 Safari/537.36" version="26.0.6">
  <diagram name="第 1 页" id="ktQa5jGP8iR777jaCJb1">
    <mxGraphModel dx="1050" dy="557" grid="1" gridSize="10" guides="1" tooltips="1" connect="1" arrows="1" fold="1" page="1" pageScale="1" pageWidth="827" pageHeight="1169" math="0" shadow="0">
      <root>
        <mxCell id="0" />
        <mxCell id="1" parent="0" />
        <mxCell id="SFvJYZZP8eGJ6HeCGlno-1" value="&lt;div&gt;&lt;br&gt;&lt;/div&gt;" style="rounded=1;whiteSpace=wrap;html=1;" vertex="1" parent="1">
          <mxGeometry x="280" y="40" width="284" height="180" as="geometry" />
        </mxCell>
        <mxCell id="SFvJYZZP8eGJ6HeCGlno-2" value="&lt;font color=&quot;#1930ff&quot; style=&quot;font-size: 14px;&quot; face=&quot;Comic Sans MS&quot;&gt;Service(HashMap)&lt;/font&gt;" style="rounded=1;whiteSpace=wrap;html=1;" vertex="1" parent="1">
          <mxGeometry x="355" y="50" width="134" height="30" as="geometry" />
        </mxCell>
        <mxCell id="SFvJYZZP8eGJ6HeCGlno-3" value="Service" style="rounded=1;whiteSpace=wrap;html=1;" vertex="1" parent="1">
          <mxGeometry x="294" y="130" width="120" height="60" as="geometry" />
        </mxCell>
        <mxCell id="SFvJYZZP8eGJ6HeCGlno-4" value="ServiceImpl" style="rounded=1;whiteSpace=wrap;html=1;" vertex="1" parent="1">
          <mxGeometry x="430" y="130" width="120" height="60" as="geometry" />
        </mxCell>
        <mxCell id="SFvJYZZP8eGJ6HeCGlno-5" value="key" style="rounded=1;whiteSpace=wrap;html=1;" vertex="1" parent="1">
          <mxGeometry x="314" y="90" width="80" height="30" as="geometry" />
        </mxCell>
        <mxCell id="SFvJYZZP8eGJ6HeCGlno-6" value="value" style="rounded=1;whiteSpace=wrap;html=1;" vertex="1" parent="1">
          <mxGeometry x="450" y="90" width="80" height="30" as="geometry" />
        </mxCell>
        <mxCell id="SFvJYZZP8eGJ6HeCGlno-7" value="" style="rounded=1;whiteSpace=wrap;html=1;" vertex="1" parent="1">
          <mxGeometry x="50" y="240" width="290" height="520" as="geometry" />
        </mxCell>
        <mxCell id="SFvJYZZP8eGJ6HeCGlno-8" value="" style="rounded=1;whiteSpace=wrap;html=1;" vertex="1" parent="1">
          <mxGeometry x="490" y="240" width="290" height="520" as="geometry" />
        </mxCell>
        <mxCell id="SFvJYZZP8eGJ6HeCGlno-9" value="&lt;font face=&quot;Comic Sans MS&quot; color=&quot;#1930ff&quot; style=&quot;font-size: 14px;&quot;&gt;Server&lt;/font&gt;" style="rounded=1;whiteSpace=wrap;html=1;" vertex="1" parent="1">
          <mxGeometry x="140" y="250" width="110" height="30" as="geometry" />
        </mxCell>
        <mxCell id="SFvJYZZP8eGJ6HeCGlno-10" value="&lt;font style=&quot;font-size: 14px;&quot; color=&quot;#1930ff&quot; face=&quot;Comic Sans MS&quot;&gt;Client&lt;/font&gt;" style="rounded=1;whiteSpace=wrap;html=1;" vertex="1" parent="1">
          <mxGeometry x="580" y="250" width="110" height="30" as="geometry" />
        </mxCell>
        <mxCell id="SFvJYZZP8eGJ6HeCGlno-11" value="&lt;h2&gt;&lt;font color=&quot;#ff1f4b&quot; style=&quot;font-size: 18px;&quot; face=&quot;Comic Sans MS&quot;&gt;MyRPC&lt;br&gt;version1.1&lt;/font&gt;&lt;/h2&gt;" style="ellipse;whiteSpace=wrap;html=1;" vertex="1" parent="1">
          <mxGeometry x="30" y="10" width="120" height="80" as="geometry" />
        </mxCell>
        <mxCell id="SFvJYZZP8eGJ6HeCGlno-12" value="" style="edgeStyle=orthogonalEdgeStyle;rounded=0;orthogonalLoop=1;jettySize=auto;html=1;entryX=-0.011;entryY=0.425;entryDx=0;entryDy=0;entryPerimeter=0;" edge="1" parent="1" source="SFvJYZZP8eGJ6HeCGlno-14" target="SFvJYZZP8eGJ6HeCGlno-1">
          <mxGeometry relative="1" as="geometry">
            <mxPoint x="60" y="130" as="targetPoint" />
            <Array as="points">
              <mxPoint x="20" y="320" />
              <mxPoint x="20" y="116" />
            </Array>
          </mxGeometry>
        </mxCell>
        <mxCell id="SFvJYZZP8eGJ6HeCGlno-13" value="" style="edgeStyle=orthogonalEdgeStyle;rounded=0;orthogonalLoop=1;jettySize=auto;html=1;" edge="1" parent="1" source="SFvJYZZP8eGJ6HeCGlno-14" target="SFvJYZZP8eGJ6HeCGlno-24">
          <mxGeometry relative="1" as="geometry" />
        </mxCell>
        <mxCell id="SFvJYZZP8eGJ6HeCGlno-14" value="注册服务(UserServiceImpl)" style="rounded=1;whiteSpace=wrap;html=1;" vertex="1" parent="1">
          <mxGeometry x="135" y="300" width="120" height="40" as="geometry" />
        </mxCell>
        <mxCell id="SFvJYZZP8eGJ6HeCGlno-15" value="" style="edgeStyle=orthogonalEdgeStyle;rounded=0;orthogonalLoop=1;jettySize=auto;html=1;" edge="1" parent="1" source="SFvJYZZP8eGJ6HeCGlno-16" target="SFvJYZZP8eGJ6HeCGlno-18">
          <mxGeometry relative="1" as="geometry" />
        </mxCell>
        <mxCell id="SFvJYZZP8eGJ6HeCGlno-16" value="实例化proxy(serverIP, port)" style="rounded=1;whiteSpace=wrap;html=1;" vertex="1" parent="1">
          <mxGeometry x="575" y="300" width="120" height="40" as="geometry" />
        </mxCell>
        <mxCell id="SFvJYZZP8eGJ6HeCGlno-17" value="" style="edgeStyle=orthogonalEdgeStyle;rounded=0;orthogonalLoop=1;jettySize=auto;html=1;" edge="1" parent="1" source="SFvJYZZP8eGJ6HeCGlno-18" target="SFvJYZZP8eGJ6HeCGlno-21">
          <mxGeometry relative="1" as="geometry" />
        </mxCell>
        <mxCell id="SFvJYZZP8eGJ6HeCGlno-18" value="反射获取UserService代理" style="rounded=1;whiteSpace=wrap;html=1;" vertex="1" parent="1">
          <mxGeometry x="575" y="370" width="120" height="40" as="geometry" />
        </mxCell>
        <mxCell id="SFvJYZZP8eGJ6HeCGlno-19" value="补充说明：&lt;div&gt;UserService提供一个方法&lt;/div&gt;&lt;div&gt;getUserById&lt;/div&gt;" style="shape=note;whiteSpace=wrap;html=1;backgroundOutline=1;darkOpacity=0.05;" vertex="1" parent="1">
          <mxGeometry x="690" y="55" width="110" height="135" as="geometry" />
        </mxCell>
        <mxCell id="SFvJYZZP8eGJ6HeCGlno-20" value="" style="edgeStyle=orthogonalEdgeStyle;rounded=0;orthogonalLoop=1;jettySize=auto;html=1;" edge="1" parent="1" source="SFvJYZZP8eGJ6HeCGlno-21">
          <mxGeometry relative="1" as="geometry">
            <mxPoint x="635" y="520" as="targetPoint" />
          </mxGeometry>
        </mxCell>
        <mxCell id="SFvJYZZP8eGJ6HeCGlno-21" value="动态代理调用getUserById" style="rounded=1;whiteSpace=wrap;html=1;" vertex="1" parent="1">
          <mxGeometry x="575" y="440" width="120" height="40" as="geometry" />
        </mxCell>
        <mxCell id="SFvJYZZP8eGJ6HeCGlno-22" value="" style="edgeStyle=orthogonalEdgeStyle;rounded=0;orthogonalLoop=1;jettySize=auto;html=1;" edge="1" parent="1" source="SFvJYZZP8eGJ6HeCGlno-24">
          <mxGeometry relative="1" as="geometry">
            <mxPoint x="195" y="520" as="targetPoint" />
          </mxGeometry>
        </mxCell>
        <mxCell id="SFvJYZZP8eGJ6HeCGlno-23" value="accept" style="edgeLabel;html=1;align=center;verticalAlign=middle;resizable=0;points=[];" vertex="1" connectable="0" parent="SFvJYZZP8eGJ6HeCGlno-22">
          <mxGeometry x="-0.1966" y="2" relative="1" as="geometry">
            <mxPoint as="offset" />
          </mxGeometry>
        </mxCell>
        <mxCell id="SFvJYZZP8eGJ6HeCGlno-24" value="监听端口" style="rounded=1;whiteSpace=wrap;html=1;" vertex="1" parent="1">
          <mxGeometry x="135" y="370" width="120" height="40" as="geometry" />
        </mxCell>
        <mxCell id="SFvJYZZP8eGJ6HeCGlno-25" value="1. 发起请求（UserService, getUserById）" style="text;html=1;align=center;verticalAlign=middle;resizable=0;points=[];autosize=1;strokeColor=none;fillColor=none;" vertex="1" parent="1">
          <mxGeometry x="289" y="550" width="250" height="30" as="geometry" />
        </mxCell>
        <mxCell id="SFvJYZZP8eGJ6HeCGlno-26" value="" style="endArrow=classic;html=1;rounded=0;exitX=0.75;exitY=0;exitDx=0;exitDy=0;entryX=0.25;entryY=1;entryDx=0;entryDy=0;" edge="1" parent="1" target="SFvJYZZP8eGJ6HeCGlno-1">
          <mxGeometry width="50" height="50" relative="1" as="geometry">
            <mxPoint x="225" y="520" as="sourcePoint" />
            <mxPoint x="480" y="390" as="targetPoint" />
          </mxGeometry>
        </mxCell>
        <mxCell id="SFvJYZZP8eGJ6HeCGlno-27" value="&lt;font style=&quot;font-size: 12px;&quot;&gt;2.获取服务(UserService, getUserById)&lt;/font&gt;" style="edgeLabel;html=1;align=center;verticalAlign=middle;resizable=0;points=[];" vertex="1" connectable="0" parent="SFvJYZZP8eGJ6HeCGlno-26">
          <mxGeometry x="0.0684" y="-2" relative="1" as="geometry">
            <mxPoint x="60" y="-34" as="offset" />
          </mxGeometry>
        </mxCell>
        <mxCell id="SFvJYZZP8eGJ6HeCGlno-28" value="Socket" style="swimlane;whiteSpace=wrap;html=1;" vertex="1" parent="1">
          <mxGeometry x="100" y="520" width="195" height="120" as="geometry" />
        </mxCell>
        <mxCell id="SFvJYZZP8eGJ6HeCGlno-29" value="" style="endArrow=classic;html=1;rounded=0;exitX=0.5;exitY=1;exitDx=0;exitDy=0;entryX=1;entryY=0;entryDx=0;entryDy=0;" edge="1" parent="1" source="SFvJYZZP8eGJ6HeCGlno-1" target="SFvJYZZP8eGJ6HeCGlno-28">
          <mxGeometry width="50" height="50" relative="1" as="geometry">
            <mxPoint x="470" y="450" as="sourcePoint" />
            <mxPoint x="520" y="400" as="targetPoint" />
          </mxGeometry>
        </mxCell>
        <mxCell id="SFvJYZZP8eGJ6HeCGlno-30" value="&lt;font style=&quot;font-size: 12px;&quot;&gt;3.返回UserServiceImpl&lt;/font&gt;" style="edgeLabel;html=1;align=center;verticalAlign=middle;resizable=0;points=[];" vertex="1" connectable="0" parent="SFvJYZZP8eGJ6HeCGlno-29">
          <mxGeometry x="-0.0105" y="3" relative="1" as="geometry">
            <mxPoint x="18" y="1" as="offset" />
          </mxGeometry>
        </mxCell>
        <mxCell id="SFvJYZZP8eGJ6HeCGlno-31" value="Socket" style="swimlane;whiteSpace=wrap;html=1;" vertex="1" parent="1">
          <mxGeometry x="539" y="520" width="195" height="120" as="geometry" />
        </mxCell>
        <mxCell id="SFvJYZZP8eGJ6HeCGlno-32" value="" style="endArrow=classic;startArrow=classic;html=1;rounded=0;exitX=1;exitY=0.5;exitDx=0;exitDy=0;entryX=0;entryY=0.5;entryDx=0;entryDy=0;" edge="1" parent="1" source="SFvJYZZP8eGJ6HeCGlno-28" target="SFvJYZZP8eGJ6HeCGlno-31">
          <mxGeometry width="50" height="50" relative="1" as="geometry">
            <mxPoint x="470" y="430" as="sourcePoint" />
            <mxPoint x="520" y="380" as="targetPoint" />
          </mxGeometry>
        </mxCell>
        <mxCell id="SFvJYZZP8eGJ6HeCGlno-33" value="4. method.invoke(service, args)" style="rounded=1;whiteSpace=wrap;html=1;" vertex="1" parent="1">
          <mxGeometry x="110" y="570" width="180" height="60" as="geometry" />
        </mxCell>
        <mxCell id="SFvJYZZP8eGJ6HeCGlno-34" value="5. 返回结果" style="text;html=1;align=center;verticalAlign=middle;resizable=0;points=[];autosize=1;strokeColor=none;fillColor=none;" vertex="1" parent="1">
          <mxGeometry x="350" y="578" width="80" height="30" as="geometry" />
        </mxCell>
      </root>
    </mxGraphModel>
  </diagram>
</mxfile>
